<svg width="48" height="48" viewBox="0 0 48 48" fill="none" xmlns="http://www.w3.org/2000/svg" role="img" aria-label="agent-caption">
  <defs>
    <linearGradient id="lc" x1="6" y1="6" x2="42" y2="40" gradientUnits="userSpaceOnUse">
      <stop stop-color="#ff6b4a"/>
      <stop offset="1" stop-color="#ffd0a8"/>
    </linearGradient>
  </defs>
  <!-- caption / chat bubble -->
  <path d="M11 6h26a7 7 0 0 1 7 7v15a7 7 0 0 1-7 7H22l-8 7v-7h-3a7 7 0 0 1-7-7V13a7 7 0 0 1 7-7z" fill="url(#lc)"/>
  <!-- AI agent spark (hero) -->
  <path d="M24 10.5 25.7 15.3 30.5 17 25.7 18.7 24 23.5 22.3 18.7 17.5 17 22.3 15.3Z" fill="#0c0c10"/>
  <!-- caption lines -->
  <rect x="14" y="26.4" width="20" height="3.1" rx="1.55" fill="#0c0c10"/>
  <rect x="14" y="31" width="12" height="3.1" rx="1.55" fill="#0c0c10"/>
</svg>
